<svg xmlns="http://www.w3.org/2000/svg" viewBox="0 0 243.81 327"><defs><style>.cls-1{fill:#fff;}.cls-2,.cls-4{fill:#03588c;}.cls-3{fill:#f28963;}.cls-4{font-size:53.19px;font-family:Arial-Black, Arial Black;font-weight:800;}</style></defs><g id="Calque_2" data-name="Calque 2"><g id="Calendar"><rect class="cls-1" x="5" y="35" width="233.81" height="287" rx="5.63"/><path class="cls-2" d="M233.18,40a.63.63,0,0,1,.63.63V316.37a.63.63,0,0,1-.63.63H10.63a.63.63,0,0,1-.63-.63V40.63a.63.63,0,0,1,.63-.63H233.18m0-10H10.63A10.63,10.63,0,0,0,0,40.63V316.37A10.63,10.63,0,0,0,10.63,327H233.18a10.63,10.63,0,0,0,10.63-10.63V40.63A10.63,10.63,0,0,0,233.18,30Z"/><rect class="cls-2" x="34.48" y="160.53" width="27.07" height="27.07"/><path class="cls-2" d="M61.06,161V187.1H35V161H61.06m1-1H34V188.1H62.06V160Z"/><rect class="cls-2" x="71.43" y="160.53" width="27.07" height="27.07"/><path class="cls-2" d="M98,161V187.1H71.93V161H98m1-1H70.93V188.1H99V160Z"/><rect class="cls-2" x="108.37" y="160.53" width="27.07" height="27.07"/><path class="cls-2" d="M134.94,161V187.1H108.87V161h26.07m1-1H107.87V188.1h28.07V160Z"/><rect class="cls-2" x="145.31" y="160.53" width="27.07" height="27.07"/><path class="cls-2" d="M171.88,161V187.1H145.81V161h26.07m1-1H144.81V188.1h28.07V160Z"/><rect class="cls-2" x="182.25" y="160.53" width="27.07" height="27.07"/><path class="cls-2" d="M208.82,161V187.1H182.75V161h26.07m1-1H181.75V188.1h28.07V160Z"/><rect class="cls-2" x="34.48" y="197.47" width="27.07" height="27.08"/><path class="cls-2" d="M61.06,198V224H35V198H61.06m1-1H34V225H62.06V197Z"/><rect class="cls-2" x="71.43" y="197.47" width="27.07" height="27.08"/><path class="cls-2" d="M98,198V224H71.93V198H98m1-1H70.93V225H99V197Z"/><rect class="cls-2" x="108.37" y="197.47" width="27.07" height="27.08"/><path class="cls-2" d="M134.94,198V224H108.87V198h26.07m1-1H107.87V225h28.07V197Z"/><rect class="cls-2" x="145.31" y="197.47" width="27.07" height="27.08"/><path class="cls-2" d="M171.88,198V224H145.81V198h26.07m1-1H144.81V225h28.07V197Z"/><rect class="cls-2" x="182.25" y="197.47" width="27.07" height="27.08"/><path class="cls-2" d="M208.82,198V224H182.75V198h26.07m1-1H181.75V225h28.07V197Z"/><rect class="cls-2" x="34.48" y="234.41" width="27.07" height="27.08"/><path class="cls-2" d="M61.06,234.91V261H35V234.91H61.06m1-1H34V262H62.06V233.91Z"/><rect class="cls-3" x="70.93" y="233.91" width="28.07" height="28.07"/><rect class="cls-2" x="108.37" y="234.41" width="27.07" height="27.08"/><path class="cls-2" d="M134.94,234.91V261H108.87V234.91h26.07m1-1H107.87V262h28.07V233.91Z"/><rect class="cls-2" x="145.31" y="234.41" width="27.07" height="27.08"/><path class="cls-2" d="M171.88,234.91V261H145.81V234.91h26.07m1-1H144.81V262h28.07V233.91Z"/><rect class="cls-2" x="182.25" y="234.41" width="27.07" height="27.08"/><path class="cls-2" d="M208.82,234.91V261H182.75V234.91h26.07m1-1H181.75V262h28.07V233.91Z"/><rect class="cls-2" x="34.48" y="271.35" width="27.07" height="27.08"/><path class="cls-2" d="M61.06,271.85v26.08H35V271.85H61.06m1-1H34v28.08H62.06V270.85Z"/><rect class="cls-2" x="71.43" y="271.35" width="27.07" height="27.08"/><path class="cls-2" d="M98,271.85v26.08H71.93V271.85H98m1-1H70.93v28.08H99V270.85Z"/><rect class="cls-2" x="108.37" y="271.35" width="27.07" height="27.08"/><path class="cls-2" d="M134.94,271.85v26.08H108.87V271.85h26.07m1-1H107.87v28.08h28.07V270.85Z"/><rect class="cls-2" x="145.31" y="271.35" width="27.07" height="27.08"/><path class="cls-2" d="M171.88,271.85v26.08H145.81V271.85h26.07m1-1H144.81v28.08h28.07V270.85Z"/><rect class="cls-2" x="182.25" y="271.35" width="27.07" height="27.08"/><path class="cls-2" d="M208.82,271.85v26.08H182.75V271.85h26.07m1-1H181.75v28.08h28.07V270.85Z"/><text class="cls-4" transform="translate(51.25 115.7)">2022</text><rect class="cls-2" x="9" y="129" width="225" height="10"/><rect class="cls-2" x="50" width="22" height="60" rx="9.15"/><rect class="cls-2" x="168" width="22" height="60" rx="9.15"/></g></g></svg>