<svg xmlns="http://www.w3.org/2000/svg" viewBox="0 0 338 313.77"><defs><style>.cls-1{fill:#03588c;}.cls-2{fill:#f28963;}</style></defs><g id="Calque_2" data-name="Calque 2"><g id="Iso_ext" data-name="Iso ext"><rect class="cls-1" x="60.19" y="105.73" width="13.31" height="208.04" rx="2.51"/><rect class="cls-1" x="70.17" y="105.73" width="198.05" height="13.31"/><rect class="cls-1" x="-20.04" y="66.67" width="218.36" height="13.31" rx="2.51" transform="translate(-26.29 73.11) rotate(-39.33)"/><rect class="cls-1" x="264.9" y="105.73" width="13.31" height="208.04" rx="2.51"/><rect class="cls-1" x="242.59" y="-35.85" width="13.31" height="218.36" rx="2.51" transform="matrix(0.63, -0.77, 0.77, 0.63, 34.55, 219.64)"/><rect class="cls-2" x="283" y="126.77" width="15" height="187"/><rect class="cls-2" x="322" y="208.77" width="7" height="25" transform="translate(546.77 -104.23) rotate(90)"/><polygon class="cls-2" points="315 211.34 315 231.77 302 221.55 315 211.34"/><rect class="cls-2" x="40" y="126.77" width="15" height="187" transform="translate(95 440.53) rotate(180)"/><rect class="cls-2" x="9" y="208.77" width="7" height="25" transform="translate(233.77 208.77) rotate(90)"/><polygon class="cls-2" points="23 211.34 23 231.77 36 221.55 23 211.34"/></g></g></svg>