<svg xmlns="http://www.w3.org/2000/svg" viewBox="0 0 337.94 320.1"><defs><style>.cls-1{fill:#03588c;}.cls-2{fill:#f28963;}</style></defs><g id="Calque_2" data-name="Calque 2"><g id="Iso_toiture" data-name="Iso toiture"><rect class="cls-1" x="60.08" y="112.06" width="13.31" height="208.04" rx="2.51"/><rect class="cls-1" x="70.07" y="112.06" width="198.05" height="13.31"/><rect class="cls-1" x="-20.14" y="73" width="218.36" height="13.31" rx="2.51" transform="translate(-30.32 74.48) rotate(-39.33)"/><rect class="cls-1" x="264.79" y="112.06" width="13.31" height="208.04" rx="2.51"/><rect class="cls-1" x="242.49" y="-29.52" width="13.31" height="218.36" rx="2.51" transform="translate(29.62 221.88) rotate(-50.67)"/><rect class="cls-2" x="253.27" y="-28.44" width="15" height="187" transform="translate(45.45 225.91) rotate(-50.77)"/><rect class="cls-2" x="280.18" y="26.09" width="7" height="25" transform="translate(88.35 -170.72) rotate(39.23)"/><polygon class="cls-2" points="269.35 40.44 285.18 53.36 269.04 56.97 269.35 40.44"/><rect class="cls-2" x="69.57" y="-28.44" width="15" height="187" transform="translate(75.6 165.92) rotate(-129.33)"/><rect class="cls-2" x="52.16" y="24.86" width="7" height="25" transform="translate(-11.07 43.74) rotate(-39.33)"/><polygon class="cls-2" points="54.64 51.77 70.44 38.83 70.78 55.35 54.64 51.77"/></g></g></svg>