<svg xmlns="http://www.w3.org/2000/svg" viewBox="0 0 335.4 313.77"><defs><style>.cls-1{fill:#03588c;}.cls-2{fill:#f28963;}</style></defs><g id="Calque_2" data-name="Calque 2"><g id="Iso_int" data-name="Iso int"><rect class="cls-1" x="58.69" y="105.73" width="13.31" height="208.04" rx="2.51"/><rect class="cls-1" x="68.68" y="105.73" width="198.05" height="13.31"/><rect class="cls-1" x="-21.53" y="66.67" width="218.36" height="13.31" rx="2.51" transform="translate(-26.63 72.17) rotate(-39.33)"/><rect class="cls-1" x="263.4" y="105.73" width="13.31" height="208.04" rx="2.51"/><rect class="cls-1" x="241.1" y="-35.85" width="13.31" height="218.36" rx="2.51" transform="translate(34 218.48) rotate(-50.67)"/><rect class="cls-2" x="76.5" y="126.77" width="15" height="187"/><rect class="cls-2" x="115.5" y="208.77" width="7" height="25" transform="translate(340.27 102.26) rotate(90)"/><polygon class="cls-2" points="108.5 211.34 108.5 231.77 95.5 221.55 108.5 211.34"/><rect class="cls-2" x="241.5" y="126.77" width="15" height="187" transform="translate(498.01 440.53) rotate(180)"/><rect class="cls-2" x="210.5" y="208.77" width="7" height="25" transform="translate(435.27 7.26) rotate(90)"/><polygon class="cls-2" points="224.5 211.34 224.5 231.77 237.5 221.55 224.5 211.34"/></g></g></svg>