<svg xmlns="http://www.w3.org/2000/svg" viewBox="0 0 189 325"><defs><style>.cls-1{fill:#04bfad;}.cls-2,.cls-3{fill:#03588c;}.cls-3{stroke:#03588c;stroke-miterlimit:10;}</style></defs><g id="Calque_2" data-name="Calque 2"><g id="Client"><circle class="cls-1" cx="95" cy="75" r="74"/><path class="cls-2" d="M95,2A73,73,0,1,1,22,75,73.09,73.09,0,0,1,95,2m0-2a75,75,0,1,0,75,75A75,75,0,0,0,95,0Z"/><path class="cls-3" d="M77.06,154.5h37.37a74.06,74.06,0,0,1,74.06,74.06V270A54.47,54.47,0,0,1,134,324.5H55A54.47,54.47,0,0,1,.5,270v-39A76.56,76.56,0,0,1,77.06,154.5Z"/></g></g></svg>