<?xml version="1.0" encoding="utf-8"?>
<svg xmlns="http://www.w3.org/2000/svg" xmlns:xlink="http://www.w3.org/1999/xlink" style="margin: auto; background: rgb(255, 255, 255); display: block; shape-rendering: auto;" width="274px" height="274px" viewBox="0 0 100 100" preserveAspectRatio="xMidYMid">
<g transform="rotate(0 50 50)">
  <rect x="49.5" y="27.5" rx="0.5" ry="0.5" width="1" height="5" fill="#405a5c">
    <animate attributeName="opacity" values="1;0" keyTimes="0;1" dur="0.47393364928909953s" begin="-0.4423380726698262s" repeatCount="indefinite"></animate>
  </rect>
</g><g transform="rotate(24 50 50)">
  <rect x="49.5" y="27.5" rx="0.5" ry="0.5" width="1" height="5" fill="#405a5c">
    <animate attributeName="opacity" values="1;0" keyTimes="0;1" dur="0.47393364928909953s" begin="-0.41074249605055296s" repeatCount="indefinite"></animate>
  </rect>
</g><g transform="rotate(48 50 50)">
  <rect x="49.5" y="27.5" rx="0.5" ry="0.5" width="1" height="5" fill="#405a5c">
    <animate attributeName="opacity" values="1;0" keyTimes="0;1" dur="0.47393364928909953s" begin="-0.37914691943127965s" repeatCount="indefinite"></animate>
  </rect>
</g><g transform="rotate(72 50 50)">
  <rect x="49.5" y="27.5" rx="0.5" ry="0.5" width="1" height="5" fill="#405a5c">
    <animate attributeName="opacity" values="1;0" keyTimes="0;1" dur="0.47393364928909953s" begin="-0.34755134281200634s" repeatCount="indefinite"></animate>
  </rect>
</g><g transform="rotate(96 50 50)">
  <rect x="49.5" y="27.5" rx="0.5" ry="0.5" width="1" height="5" fill="#405a5c">
    <animate attributeName="opacity" values="1;0" keyTimes="0;1" dur="0.47393364928909953s" begin="-0.315955766192733s" repeatCount="indefinite"></animate>
  </rect>
</g><g transform="rotate(120 50 50)">
  <rect x="49.5" y="27.5" rx="0.5" ry="0.5" width="1" height="5" fill="#405a5c">
    <animate attributeName="opacity" values="1;0" keyTimes="0;1" dur="0.47393364928909953s" begin="-0.2843601895734597s" repeatCount="indefinite"></animate>
  </rect>
</g><g transform="rotate(144 50 50)">
  <rect x="49.5" y="27.5" rx="0.5" ry="0.5" width="1" height="5" fill="#405a5c">
    <animate attributeName="opacity" values="1;0" keyTimes="0;1" dur="0.47393364928909953s" begin="-0.25276461295418645s" repeatCount="indefinite"></animate>
  </rect>
</g><g transform="rotate(168 50 50)">
  <rect x="49.5" y="27.5" rx="0.5" ry="0.5" width="1" height="5" fill="#405a5c">
    <animate attributeName="opacity" values="1;0" keyTimes="0;1" dur="0.47393364928909953s" begin="-0.2211690363349131s" repeatCount="indefinite"></animate>
  </rect>
</g><g transform="rotate(192 50 50)">
  <rect x="49.5" y="27.5" rx="0.5" ry="0.5" width="1" height="5" fill="#405a5c">
    <animate attributeName="opacity" values="1;0" keyTimes="0;1" dur="0.47393364928909953s" begin="-0.18957345971563982s" repeatCount="indefinite"></animate>
  </rect>
</g><g transform="rotate(216 50 50)">
  <rect x="49.5" y="27.5" rx="0.5" ry="0.5" width="1" height="5" fill="#405a5c">
    <animate attributeName="opacity" values="1;0" keyTimes="0;1" dur="0.47393364928909953s" begin="-0.1579778830963665s" repeatCount="indefinite"></animate>
  </rect>
</g><g transform="rotate(240 50 50)">
  <rect x="49.5" y="27.5" rx="0.5" ry="0.5" width="1" height="5" fill="#405a5c">
    <animate attributeName="opacity" values="1;0" keyTimes="0;1" dur="0.47393364928909953s" begin="-0.12638230647709323s" repeatCount="indefinite"></animate>
  </rect>
</g><g transform="rotate(264 50 50)">
  <rect x="49.5" y="27.5" rx="0.5" ry="0.5" width="1" height="5" fill="#405a5c">
    <animate attributeName="opacity" values="1;0" keyTimes="0;1" dur="0.47393364928909953s" begin="-0.09478672985781991s" repeatCount="indefinite"></animate>
  </rect>
</g><g transform="rotate(288 50 50)">
  <rect x="49.5" y="27.5" rx="0.5" ry="0.5" width="1" height="5" fill="#405a5c">
    <animate attributeName="opacity" values="1;0" keyTimes="0;1" dur="0.47393364928909953s" begin="-0.06319115323854661s" repeatCount="indefinite"></animate>
  </rect>
</g><g transform="rotate(312 50 50)">
  <rect x="49.5" y="27.5" rx="0.5" ry="0.5" width="1" height="5" fill="#405a5c">
    <animate attributeName="opacity" values="1;0" keyTimes="0;1" dur="0.47393364928909953s" begin="-0.031595576619273306s" repeatCount="indefinite"></animate>
  </rect>
</g><g transform="rotate(336 50 50)">
  <rect x="49.5" y="27.5" rx="0.5" ry="0.5" width="1" height="5" fill="#405a5c">
    <animate attributeName="opacity" values="1;0" keyTimes="0;1" dur="0.47393364928909953s" begin="0s" repeatCount="indefinite"></animate>
  </rect>
</g>
</svg>